<?xml version="1.0" encoding="UTF-8" standalone="no"?> <svg width="48" height="48" viewBox="0 0 48 48" fill="none" xmlns="http://www.w3.org/2000/svg">
<path d="M24 45C35.598 45 45 35.598 45 24C45 12.402 35.598 3 24 3C12.402 3 3 12.402 3 24C3 35.598 12.402 45 24 45Z" fill="#009AE0"/>
<path d="M30.4999 35.9999C26.7723 36.0039 23.1307 34.8806 20.0532 32.7774C16.9756 30.6742 14.606 27.6895 13.2556 24.2152C11.9051 20.7409 11.6368 16.9394 12.486 13.3099C13.3352 9.68034 15.2622 6.39245 18.0139 3.87793C14.5257 4.91343 11.3665 6.83749 8.84579 9.46153C6.32509 12.0856 4.52944 15.3195 3.63484 18.8464C2.74024 22.3734 2.77738 26.0722 3.74263 29.5804C4.70788 33.0887 6.56811 36.2859 9.14099 38.8588C11.7139 41.4317 14.9111 43.2919 18.4194 44.2572C21.9276 45.2224 25.6265 45.2596 29.1534 44.365C32.6803 43.4704 35.9143 41.6747 38.5383 39.154C41.1623 36.6333 43.0864 33.4741 44.1219 29.9859C42.3946 31.8809 40.291 33.3945 37.9454 34.4301C35.5998 35.4656 33.0639 36.0003 30.4999 35.9999V35.9999Z" fill="#0081BD"/>
<path d="M24 2C19.6488 2 15.3953 3.29028 11.7775 5.70767C8.15958 8.12506 5.33979 11.561 3.67466 15.581C2.00953 19.6009 1.57386 24.0244 2.42273 28.292C3.27161 32.5596 5.36691 36.4796 8.44366 39.5564C11.5204 42.6331 15.4404 44.7284 19.708 45.5773C23.9756 46.4261 28.3991 45.9905 32.419 44.3253C36.439 42.6602 39.875 39.8404 42.2923 36.2225C44.7097 32.6047 46 28.3512 46 24C45.9934 18.1673 43.6734 12.5753 39.5491 8.45096C35.4247 4.32659 29.8327 2.00662 24 2V2ZM42.318 32H36.13C36.6372 29.6995 36.9189 27.3551 36.971 25H43.949C43.8361 27.4132 43.2834 29.7854 42.318 32ZM4.05101 25H11.029C11.0811 27.3551 11.3628 29.6995 11.87 32H5.68201C4.71664 29.7854 4.1639 27.4132 4.05101 25V25ZM5.68201 16H11.87C11.3628 18.3005 11.0811 20.6449 11.029 23H4.05101C4.1639 20.5868 4.71664 18.2146 5.68201 16V16ZM25 14V4.092C28.639 4.692 31.764 8.528 33.512 14H25ZM34.075 16C34.6172 18.2958 34.9188 20.6418 34.975 23H25V16H34.075ZM23 4.092V14H14.488C16.236 8.528 19.361 4.692 23 4.092ZM23 16V23H13.028C13.0842 20.6418 13.3859 18.2958 13.928 16H23ZM13.028 25H23V32H13.925C13.3839 29.7041 13.0833 27.3581 13.028 25V25ZM23 34V43.908C19.361 43.308 16.236 39.472 14.488 34H23ZM25 43.908V34H33.512C31.764 39.472 28.639 43.308 25 43.908ZM25 32V25H34.972C34.9158 27.3582 34.6141 29.7042 34.072 32H25ZM36.971 23C36.9189 20.6449 36.6372 18.3005 36.13 16H42.318C43.2834 18.2146 43.8361 20.5868 43.949 23H36.971ZM41.294 14H35.613C34.7451 10.7415 33.113 7.73679 30.852 5.235C35.2483 6.8496 38.942 9.95006 41.294 14V14ZM17.148 5.235C14.887 7.73679 13.2549 10.7415 12.387 14H6.70601C9.05807 9.95006 12.7517 6.8496 17.148 5.235V5.235ZM6.70601 34H12.387C13.2549 37.2585 14.887 40.2632 17.148 42.765C12.7517 41.1504 9.05807 38.0499 6.70601 34V34ZM30.852 42.765C33.113 40.2632 34.7451 37.2585 35.613 34H41.294C38.942 38.0499 35.2483 41.1504 30.852 42.765Z" fill="black"/>
</svg>
